# xmcd CD database file
#
# Track frame offsets:
#	150
#	16195
#	28307
#	44613
#	66964
#	84721
#	99614
#	124081
#	147803
#	163756
#	183904
#
# Disc length: 2710 seconds
#
# Revision: 0
# Processed by: cddbd v1.5.2PL0 Copyright (c) Steve Scherf et al.
# Submitted via: CDex 1.79
#
DISCID=970a940b
DTITLE=The Roper Show - Son of John
DYEAR=1900
DGENRE=Blues
TTITLE0=Hail Mary
TTITLE1=Yukon Girl
TTITLE2=I Ain't Ready
TTITLE3=Sick of You
TTITLE4=High Times
TTITLE5=Eric's Got a Baby
TTITLE6=Shiny Round Nickle
TTITLE7=Cave Man
TTITLE8=One Tune
TTITLE9=Hope
TTITLE10=Sex Swing
EXTD=
EXTT0=
EXTT1=
EXTT2=
EXTT3=
EXTT4=
EXTT5=
EXTT6=
EXTT7=
EXTT8=
EXTT9=
EXTT10=
PLAYORDER=
